<svg xmlns="http://www.w3.org/2000/svg" viewBox="0 0 95.6 99.47"><defs><style>.cls-1{fill:#f6f0ed;stroke:#f6f0ed;stroke-miterlimit:10;stroke-width:5px;}</style></defs><title>rotate-right</title><g id="Layer_2" data-name="Layer 2"><g id="Layer_1-2" data-name="Layer 1"><path class="cls-1" d="M81.1,2.74A3.64,3.64,0,0,0,79.37,4.3c-.24.41-.29,1.34-.35,7.4l-.08,6.91-.9-.82a48.11,48.11,0,0,0-8.69-6.09,45.94,45.94,0,0,0-32-4.17,45.44,45.44,0,0,0-23,13.54A44.85,44.85,0,0,0,3.14,44,45.3,45.3,0,0,0,42.57,96.73a58.09,58.09,0,0,0,10.55,0A45.27,45.27,0,0,0,91.87,62.56,37.51,37.51,0,0,0,93.1,51.85c0-4.86-.29-7.66-1-8.94a3.55,3.55,0,0,0-6.24.08c-.48,1-.5,1.53-.17,4.06a46.7,46.7,0,0,1,0,9.53,39,39,0,0,1-8.36,19.57,48.56,48.56,0,0,1-5.81,5.75,38.62,38.62,0,0,1-55.1-53.27,52.23,52.23,0,0,1,7.75-7.77,39.39,39.39,0,0,1,17.23-7.29,56.88,56.88,0,0,1,9.92-.23A41,41,0,0,1,61.7,15.9a40.48,40.48,0,0,1,12.82,8.44l1.22,1.26-8,2.65C60.5,30.66,59.71,31,59.1,31.51a3.27,3.27,0,0,0-1.15,3,2.79,2.79,0,0,0,.52,1.67,3.66,3.66,0,0,0,2.64,1.52c.79.08,1.56-.15,12-3.63,12.09-4,12-4,12.64-5.34.34-.68.34-.84.34-12.17,0-10.84,0-11.51-.3-12.11a3.66,3.66,0,0,0-1.67-1.7A4.78,4.78,0,0,0,81.1,2.74Z"/></g></g></svg>