<svg xmlns="http://www.w3.org/2000/svg" viewBox="0 0 95.6 99.47"><defs><style>.cls-1{fill:#f6f0ed;stroke:#f6f0ed;stroke-miterlimit:10;stroke-width:5px;}</style></defs><title>rotate-left</title><g id="Layer_2" data-name="Layer 2"><g id="Layer_1-2" data-name="Layer 1"><path class="cls-1" d="M11.46,2.76a3.66,3.66,0,0,0-1.67,1.7c-.28.6-.3,1.27-.3,12.11,0,11.33,0,11.49.33,12.17.66,1.35.55,1.31,12.65,5.34,10.45,3.48,11.22,3.71,12,3.63a3.68,3.68,0,0,0,2.65-1.52,2.79,2.79,0,0,0,.52-1.67,3.27,3.27,0,0,0-1.15-3c-.62-.55-1.4-.85-8.66-3.26l-8-2.65,1.23-1.26A40.48,40.48,0,0,1,33.9,15.9a41,41,0,0,1,10.36-2.56,56.88,56.88,0,0,1,9.92.23,39.44,39.44,0,0,1,17.23,7.29,52.71,52.71,0,0,1,7.75,7.77A38.62,38.62,0,0,1,24.06,81.9a48.56,48.56,0,0,1-5.81-5.75A39,39,0,0,1,9.89,56.58a46.7,46.7,0,0,1,0-9.53c.33-2.53.31-3.1-.18-4.06a3.54,3.54,0,0,0-6.23-.08c-.7,1.28-1,4.08-1,8.94A37.16,37.16,0,0,0,3.73,62.56,45.25,45.25,0,0,0,42.48,96.73a58.09,58.09,0,0,0,10.55,0A45.44,45.44,0,0,0,87.9,72.86,45.84,45.84,0,0,0,92.46,44,44.93,44.93,0,0,0,81.25,21.07a45.43,45.43,0,0,0-23-13.54,45.92,45.92,0,0,0-32,4.17,48.19,48.19,0,0,0-8.7,6.09l-.89.82-.08-6.91c-.06-6.06-.11-7-.35-7.4A3.69,3.69,0,0,0,14.5,2.74,4.78,4.78,0,0,0,11.46,2.76Z"/></g></g></svg>